<svg width="24" height="24" viewBox="0 0 24 24" fill="none" xmlns="http://www.w3.org/2000/svg">
<path d="M8 4C5.23857 4 3 6.23858 3 9V14.9603C3 17.7217 5.23858 19.9603 8 19.9603H10.9801C11.5324 19.9603 11.9801 19.5126 11.9801 18.9603C11.9801 18.408 11.5324 17.9603 10.9801 17.9603H8C6.34315 17.9603 5 16.6171 5 14.9603V9C5 7.34315 6.34315 6 8 6H10.9801C11.5324 6 11.9801 5.55228 11.9801 5C11.9801 4.44772 11.5324 4 10.9801 4H8Z" fill="#5C94F9"/>
<path d="M20.5776 11.2349C21.038 11.6337 21.038 12.348 20.5776 12.7467L16.125 16.6028C15.4773 17.1637 14.4703 16.7036 14.4703 15.8469V14.3175H9.81688C8.53188 14.3175 7.49017 13.2758 7.49017 11.9908C7.49017 10.7058 8.53188 9.6641 9.81689 9.6641H14.4703L14.4703 8.13473C14.4703 7.27798 15.4773 6.81793 16.125 7.37881L20.5776 11.2349Z" fill="#5C94F9"/>
</svg>
