<svg width="28" height="28" viewBox="0 0 28 28" fill="none" xmlns="http://www.w3.org/2000/svg">
<path d="M8 7V6C7.44772 6 7 6.44772 7 7H8ZM23 7H24C24 6.44772 23.5523 6 23 6V7ZM23 25V26C23.5523 26 24 25.5523 24 25H23ZM8 25H7C7 25.5523 7.44772 26 8 26V25ZM19 6.17647C19 6.72876 19.4477 7.17647 20 7.17647C20.5523 7.17647 21 6.72876 21 6.17647H19ZM20 3H21C21 2.44772 20.5523 2 20 2V3ZM5 21H4C4 21.5523 4.44772 22 5 22V21ZM8 22C8.55228 22 9 21.5523 9 21C9 20.4477 8.55228 20 8 20V22ZM13 12C12.4477 12 12 12.4477 12 13C12 13.5523 12.4477 14 13 14V12ZM19 14C19.5523 14 20 13.5523 20 13C20 12.4477 19.5523 12 19 12V14ZM13 17C12.4477 17 12 17.4477 12 18C12 18.5523 12.4477 19 13 19V17ZM19 19C19.5523 19 20 18.5523 20 18C20 17.4477 19.5523 17 19 17V19ZM8 8H23V6H8V8ZM22 7V25H24V7H22ZM23 24H8V26H23V24ZM9 25V7H7V25H9ZM21 6.17647V3H19V6.17647H21ZM20 2H5.53571V4H20V2ZM5.53571 2C4.69876 2 4 2.67362 4 3.52941H6C6 3.80044 5.78094 4 5.53571 4V2ZM4 3.52941V21H6V3.52941H4ZM5 22H8V20H5V22ZM13 14H19V12H13V14ZM13 19H19V17H13V19Z" fill="#ADBCE1"/>
</svg>
