<svg width="465" height="20" viewBox="0 0 465 20" fill="none" xmlns="http://www.w3.org/2000/svg">
<path d="M17.2082 1.086H24.5922L22.2002 18.142C22.1482 18.454 22.0009 18.714 21.7582 18.922C21.5156 19.1127 21.2382 19.208 20.9262 19.208H18.0142L19.1582 17.908L19.8862 12.682H18.2742L17.2342 19.208H14.2962L17.2082 1.086ZM10.1622 3.894L10.5002 1.554L9.66823 0.565999H14.2442L13.7502 3.894H16.0122L15.6742 6.182H13.4382L13.0742 8.704H15.1282L13.8282 17.83H6.15823L7.45823 8.704H9.48623L9.85023 6.182H7.71824L8.05623 3.894H10.1622ZM0.334234 19.234L2.59623 11.876H6.28823L4.02623 19.234H0.334234ZM2.75223 10.888L2.57023 6.442H6.26223L6.47023 10.888H2.75223ZM3.50623 5.454L3.32423 1.008H7.01623L7.22423 5.454H3.50623ZM10.9162 15.646L11.5662 10.966H10.2662L9.61623 15.646H10.9162ZM18.5862 10.706H20.1462L20.5362 7.924H19.0542L18.5862 10.706ZM19.3662 5.948H20.8222L21.2122 3.218H19.8082L19.3662 5.948ZM34.6002 1.762L34.6522 1.502L33.8202 0.513999H39.7482L39.5662 1.762H47.9642L47.6262 4.232H39.2022L39.0462 5.454H46.4562L44.7662 17.518C44.6795 18.0207 44.4455 18.4367 44.0642 18.766C43.6829 19.078 43.2409 19.234 42.7382 19.234H38.5782L40.9182 16.816L42.1662 7.924H30.3102L28.6982 19.234H24.7462L26.6962 5.454H34.0802L34.2622 4.232H25.8902L26.2282 1.762H34.6002ZM35.2502 10.394H36.5242L37.3302 8.912H41.0222L40.2162 10.394H41.0742L40.7622 12.604H37.4082L37.2782 13.618H40.6322L40.3202 15.828H36.9662L36.5762 18.558H32.8842L33.2742 15.828H29.9202L30.2322 13.618H33.5862L33.7162 12.604H30.3622L30.6742 10.394H31.5322L31.1422 8.912H34.8602L35.2502 10.394ZM70.0622 8.366L68.6062 18.714H48.8982L50.3542 8.366H70.0622ZM65.0442 5.688L66.4222 4.674H71.5442L67.6702 7.872H49.4182L49.7562 5.636L65.0442 5.688ZM58.7522 0.903999L57.8162 0.513999H63.7442L63.1202 5.038H58.1802L58.7522 0.903999ZM54.7742 4.7H49.8862L52.7722 1.32H57.7122L54.7742 4.7ZM64.6282 1.32H69.5682L71.6482 3.946H66.7342L64.6282 1.32ZM54.5922 14.112H64.2382L64.3682 13.228H54.7222L54.5922 14.112ZM54.9822 11.252H64.6282L64.7582 10.446H55.1122L54.9822 11.252ZM63.8482 16.842L63.9522 16.036H54.3062L54.2022 16.842H63.8482ZM82.2281 14.84L83.0341 15.412L86.3101 13.332H75.5201L78.1721 9.172H73.1541L73.4921 6.702H79.7581L80.8761 4.96H75.4681L75.8321 2.49H82.4621L83.3201 1.164L82.7481 0.513999H88.6761L87.4021 2.49H94.0841L93.7201 4.96H85.8421L84.7241 6.702H95.2281L94.8901 9.172H83.1381L82.0461 10.888H92.6541L92.3161 13.332V13.358L85.8681 17.31L88.1041 18.792H82.1761L76.3001 14.84H82.2281ZM101.492 16.322L103.52 1.996L102.662 1.008H108.59L106.432 16.322H108.408L110.436 1.996L109.578 1.008H115.506L113.348 16.322H118.288L117.95 18.792H96.2141L96.5521 16.322H101.492ZM114.258 13.358L116.572 3.972H120.03L117.716 13.358H114.258ZM97.9561 13.358L98.2941 3.972H101.752L101.414 13.358H97.9561ZM130.454 0.513999L129.934 1.502H142.648L142.31 3.972H128.66L128.01 5.22H141.14L140.802 7.69H126.736L126.372 8.418H121.432L125.15 1.242L124.526 0.513999H130.454ZM140.594 9.146L139.58 16.322H141.062L142.206 15.334L141.634 19.234H134.38L135.316 11.616H122.966L123.304 9.146H140.594ZM153.202 10.108L152.708 9.718L149.536 11.876H145.09L148.366 9.64H146.39L147.092 4.7H160.04L160.82 3.478H152.422L152.136 3.972H147.196L148.782 1.216L148.184 0.513999H154.112L153.826 1.008H165.89L165.474 3.972L165.006 4.7H166.852L166.15 9.64H157.57L159.078 10.888L159.026 11.226L166.54 10.394L166.176 13.098L161.86 13.592L166.358 18.792H161.418L158.454 15.334L158.142 17.518C158.055 18.0207 157.813 18.4367 157.414 18.766C157.033 19.078 156.599 19.234 156.114 19.234H151.46L153.8 16.816L153.878 16.244L150.186 18.792H145.74L154.346 12.864L154.424 12.24L149.51 15.568H145.064L153.072 10.108H153.202ZM154.086 7.664L154.216 6.676H151.252L151.122 7.664H154.086ZM159.156 6.676L159.026 7.664H161.99L162.12 6.676H159.156ZM177.926 19.234L180.474 1.112H191.498L190.9 5.35C190.831 5.85267 190.614 6.27733 190.25 6.624C189.903 6.95333 189.505 7.118 189.054 7.118H186.298L187.312 6.156L187.676 3.478H183.724L183.074 8.002H190.484L189.938 11.772L187.806 14.736L189.886 19.234H186.766L185.908 17.414L184.608 19.234H177.926ZM172.7 19.208L173.922 17.778L174.624 12.838H172.7L171.556 19.208H168.228L171.27 1.97L170.828 1.112H179.694L177.406 17.492C177.319 17.9773 177.103 18.3847 176.756 18.714C176.427 19.0433 176.054 19.208 175.638 19.208H172.7ZM182.736 10.368L181.514 19.182L184.712 14.762L182.918 10.836H186.038L186.61 12.11L187.546 10.836L187.624 10.368H182.736ZM173.142 10.368H174.962L175.274 8.132H173.558L173.142 10.368ZM174 5.662H175.638L175.924 3.582H174.39L174 5.662ZM207.798 9.9L204.522 8.756L200.934 9.9H193.498L193.836 7.43H198.568L199.712 7.066L197.918 6.442H193.992L196.904 1.216L196.306 0.513999H202.234L201.688 1.502H215.416L214.87 5.454L209.8 7.066L210.84 7.43H215.078L214.74 9.9H207.798ZM192.172 19.234L197.606 13.852H193.446L193.784 11.382H200.102L201.376 10.134H206.81L205.536 11.382H214.038L213.18 17.518C213.093 18.0207 212.859 18.4367 212.478 18.766C212.097 19.078 211.655 19.234 211.152 19.234H206.004L208.344 16.816L208.76 13.852H203.04L197.606 19.234H192.172ZM200.934 3.972L204.964 5.402L209.41 3.972H200.934ZM234.862 11.304L236.422 19.182H231.82L231.638 18.324L216.818 19L217.182 16.322L222.044 9.614H216.636L216.974 7.118H238.762L238.424 9.614H227.478L222.902 16.036L231.118 15.646L230.26 11.304H234.862ZM238.112 0.982L237.748 3.53H219.418L219.782 0.982H238.112ZM262.784 1.008L262.446 3.478H255.01L254.126 9.9H262.524L262.186 12.37H253.788L252.826 19.234H247.886L248.848 12.37H240.45L240.788 9.9H249.186L250.07 3.478H242.686L243.024 1.008H262.784ZM256.882 4.466H261.328L259.716 8.912H255.27L256.882 4.466ZM248.354 8.912H243.908L243.544 4.466H247.99L248.354 8.912ZM285.532 9.9L284.284 18.714H265.174L266.422 9.9H285.532ZM284.076 1.528L285.922 8.912H281.71L281.606 8.522H266.552L266.812 6.65L270.556 1.138L269.932 0.539999H276.354L272.454 6.13H281.008L279.864 1.528H284.076ZM279.734 16.244L280.28 12.344H270.92L270.374 16.244H279.734ZM297.464 12.708H288.598L289.014 10.056H297.906L297.464 12.708ZM317.986 8.184H321.496L321.158 10.654H306.26L303.894 19.234H299.188L302.23 8.184H305.22L305.09 5.454H309.042L309.172 8.184H314.034L314.97 5.454H318.922L317.986 8.184ZM310.004 1.996L310.082 1.502L309.25 0.513999H315.178L314.97 1.996H322.874L322.51 4.466H301.762L302.126 1.996H310.004ZM328.8 1.996L327.942 1.008H344.738L343.62 8.912H327.812L328.8 1.996ZM339.044 6.442L339.46 3.478H333.532L333.116 6.442H339.044ZM345.96 9.9L344.712 18.792H334.832L336.08 9.9H345.96ZM339.694 12.37L339.122 16.322H341.098L341.67 12.37H339.694ZM335.092 9.9L333.844 18.792H323.964L325.212 9.9H335.092ZM328.826 12.37L328.254 16.322H330.23L330.802 12.37H328.826ZM355.526 17.31L356.696 15.854L357.112 12.864H356.098L355.214 19.234H351.262L352.146 12.864H351.184L350.56 17.31H347.596L348.558 10.394H352.51L352.64 9.406H348.22L348.558 6.936H353.004L353.212 5.454H351.834L351.6 6.442H348.636L349.754 1.996H352.718L352.458 2.984H353.55L353.758 1.502L352.926 0.513999H357.866L357.502 2.984H361.22L360.882 5.454H357.164L356.956 6.936H361.402L361.064 9.406H356.592L356.462 10.394H360.414L359.608 16.244C359.556 16.5387 359.409 16.79 359.166 16.998C358.941 17.206 358.681 17.31 358.386 17.31H355.526ZM361.714 18.792L364.028 16.322L366.082 1.736L365.458 1.008H370.138L367.876 17.024C367.807 17.5267 367.581 17.9513 367.2 18.298C366.819 18.6273 366.377 18.792 365.874 18.792H361.714ZM365.146 2.984L363.274 16.322H360.57L362.442 2.984H365.146ZM380.38 1.164L379.834 0.513999H384.514L383.968 2.49H394.108L393.77 4.96H388.31L387.92 7.69H392.392L392.054 10.134H387.582L387.192 12.864H392.158L391.82 15.334H386.854L386.308 19.234H381.602L383.604 4.96H383.292L382.486 7.924H378.534L380.38 1.164ZM378.43 3.478L376.194 19.234H371.488L373.594 4.44L372.06 4.726L372.476 1.762L378.846 0.513999L378.43 3.478ZM404.142 8.418L404.428 6.442L411.448 3.478H397.434L397.772 1.008H418.026L417.558 4.466L409.134 8.028L409.082 8.418H417.48L417.142 10.888H408.718L407.808 17.518C407.739 18.0207 407.513 18.4367 407.132 18.766C406.751 19.078 406.309 19.234 405.806 19.234H400.658L402.972 16.816L403.804 10.888H395.406L395.744 8.418H404.142ZM441.788 1.008L441.45 3.478H434.014L433.13 9.9H441.528L441.19 12.37H432.792L431.83 19.234H426.89L427.852 12.37H419.454L419.792 9.9H428.19L429.074 3.478H421.69L422.028 1.008H441.788ZM435.886 4.466H440.332L438.72 8.912H434.274L435.886 4.466ZM427.358 8.912H422.912L422.548 4.466H426.994L427.358 8.912ZM464.536 9.9L463.288 18.714H444.178L445.426 9.9H464.536ZM463.08 1.528L464.926 8.912H460.714L460.61 8.522H445.556L445.816 6.65L449.56 1.138L448.936 0.539999H455.358L451.458 6.13H460.012L458.868 1.528H463.08ZM458.738 16.244L459.284 12.344H449.924L449.378 16.244H458.738Z" fill="url(#paint0_linear_13174_58410)"/>
<defs>
<linearGradient id="paint0_linear_13174_58410" x1="233.5" y1="-7" x2="233.949" y2="54.0008" gradientUnits="userSpaceOnUse">
<stop stop-color="#0057FF"/>
<stop offset="1" stop-color="white"/>
</linearGradient>
</defs>
</svg>
