<svg width="724" height="38" viewBox="0 0 724 38" fill="none" xmlns="http://www.w3.org/2000/svg">
<g filter="url(#filter0_d_13513_92838)">
<path d="M30.7434 1.44H42.1034L38.4234 27.68C38.3434 28.16 38.1168 28.56 37.7434 28.88C37.3701 29.1733 36.9434 29.32 36.4634 29.32H31.9834L33.7434 27.32L34.8634 19.28H32.3834L30.7834 29.32H26.2634L30.7434 1.44ZM19.9034 5.76L20.4234 2.16L19.1434 0.639998H26.1834L25.4234 5.76H28.9034L28.3834 9.28H24.9434L24.3834 13.16H27.5434L25.5434 27.2H13.7434L15.7434 13.16H18.8634L19.4234 9.28H16.1434L16.6634 5.76H19.9034ZM4.78344 29.36L8.26344 18.04H13.9434L10.4634 29.36H4.78344ZM8.50344 16.52L8.22344 9.68H13.9034L14.2234 16.52H8.50344ZM9.66344 8.16L9.38344 1.32H15.0634L15.3834 8.16H9.66344ZM21.0634 23.84L22.0634 16.64H20.0634L19.0634 23.84H21.0634ZM32.8634 16.24H35.2634L35.8634 11.96H33.5834L32.8634 16.24ZM34.0634 8.92H36.3034L36.9034 4.72H34.7434L34.0634 8.92ZM57.5003 2.48L57.5803 2.08L56.3003 0.559999H65.4203L65.1403 2.48H78.0603L77.5403 6.28H64.5803L64.3403 8.16H75.7403L73.1403 26.72C73.007 27.4933 72.647 28.1333 72.0603 28.64C71.4736 29.12 70.7936 29.36 70.0203 29.36H63.6203L67.2203 25.64L69.1403 11.96H50.9003L48.4203 29.36H42.3403L45.3403 8.16H56.7003L56.9803 6.28H44.1003L44.6203 2.48H57.5003ZM58.5003 15.76H60.4603L61.7003 13.48H67.3803L66.1403 15.76H67.4603L66.9803 19.16H61.8203L61.6203 20.72H66.7803L66.3003 24.12H61.1403L60.5403 28.32H54.8603L55.4603 24.12H50.3003L50.7803 20.72H55.9403L56.1403 19.16H50.9803L51.4603 15.76H52.7803L52.1803 13.48H57.9003L58.5003 15.76ZM112.057 12.64L109.817 28.56H79.4972L81.7372 12.64H112.057ZM104.337 8.52L106.457 6.96H114.337L108.377 11.88H80.2972L80.8172 8.44L104.337 8.52ZM94.6572 1.16L93.2172 0.559999H102.337L101.377 7.52H93.7772L94.6572 1.16ZM88.5372 7H81.0172L85.4572 1.8H93.0572L88.5372 7ZM103.697 1.8H111.297L114.497 5.84H106.937L103.697 1.8ZM88.2572 21.48H103.097L103.297 20.12H88.4572L88.2572 21.48ZM88.8572 17.08H103.697L103.897 15.84H89.0572L88.8572 17.08ZM102.497 25.68L102.657 24.44H87.8172L87.6572 25.68H102.497ZM130.774 22.6L132.014 23.48L137.054 20.28H120.454L124.534 13.88H116.814L117.334 10.08H126.974L128.694 7.4H120.374L120.934 3.6H131.134L132.454 1.56L131.574 0.559999H140.694L138.734 3.6H149.014L148.454 7.4H136.334L134.614 10.08H150.774L150.254 13.88H132.174L130.494 16.52H146.814L146.294 20.28V20.32L136.374 26.4L139.814 28.68H130.694L121.654 22.6H130.774ZM160.411 24.88L163.531 2.84L162.211 1.32H171.331L168.011 24.88H171.051L174.171 2.84L172.851 1.32H181.971L178.651 24.88H186.251L185.731 28.68H152.291L152.811 24.88H160.411ZM180.051 20.32L183.611 5.88H188.931L185.371 20.32H180.051ZM154.971 20.32L155.491 5.88H160.811L160.291 20.32H154.971ZM204.968 0.559999L204.168 2.08H223.728L223.208 5.88H202.208L201.208 7.8H221.408L220.888 11.6H199.248L198.688 12.72H191.088L196.808 1.68L195.848 0.559999H204.968ZM220.568 13.84L219.008 24.88H221.288L223.048 23.36L222.168 29.36H211.008L212.448 17.64H193.448L193.968 13.84H220.568ZM239.965 15.32L239.205 14.72L234.325 18.04H227.485L232.525 14.6H229.485L230.565 7H250.485L251.685 5.12H238.765L238.325 5.88H230.725L233.165 1.64L232.245 0.559999H241.365L240.925 1.32H259.485L258.845 5.88L258.125 7H260.965L259.885 14.6H246.685L249.005 16.52L248.925 17.04L260.485 15.76L259.925 19.92L253.285 20.68L260.205 28.68H252.605L248.045 23.36L247.565 26.72C247.431 27.4933 247.058 28.1333 246.445 28.64C245.858 29.12 245.191 29.36 244.445 29.36H237.285L240.885 25.64L241.005 24.76L235.325 28.68H228.485L241.725 19.56L241.845 18.6L234.285 23.72H227.445L239.765 15.32H239.965ZM241.325 11.56L241.525 10.04H236.965L236.765 11.56H241.325ZM249.125 10.04L248.925 11.56H253.485L253.685 10.04H249.125ZM278.002 29.36L281.922 1.48H298.882L297.962 8C297.855 8.77333 297.522 9.42667 296.962 9.96C296.428 10.4667 295.815 10.72 295.122 10.72H290.882L292.442 9.24L293.002 5.12H286.922L285.922 12.08H297.322L296.482 17.88L293.202 22.44L296.402 29.36H291.602L290.282 26.56L288.282 29.36H278.002ZM269.962 29.32L271.842 27.12L272.922 19.52H269.962L268.202 29.32H263.082L267.762 2.8L267.082 1.48H280.722L277.202 26.68C277.068 27.4267 276.735 28.0533 276.202 28.56C275.695 29.0667 275.122 29.32 274.482 29.32H269.962ZM285.402 15.72L283.522 29.28L288.442 22.48L285.682 16.44H290.482L291.362 18.4L292.802 16.44L292.922 15.72H285.402ZM270.642 15.72H273.442L273.922 12.28H271.282L270.642 15.72ZM271.962 8.48H274.482L274.922 5.28H272.562L271.962 8.48ZM323.958 15L318.918 13.24L313.398 15H301.958L302.478 11.2H309.758L311.518 10.64L308.758 9.68H302.718L307.198 1.64L306.278 0.559999H315.398L314.558 2.08H335.678L334.838 8.16L327.038 10.64L328.638 11.2H335.158L334.638 15H323.958ZM299.918 29.36L308.278 21.08H301.878L302.398 17.28H312.118L314.078 15.36H322.438L320.478 17.28H333.558L332.238 26.72C332.105 27.4933 331.745 28.1333 331.158 28.64C330.572 29.12 329.892 29.36 329.118 29.36H321.198L324.798 25.64L325.438 21.08H316.638L308.278 29.36H299.918ZM313.398 5.88L319.598 8.08L326.438 5.88H313.398ZM365.595 17.16L367.995 29.28H360.915L360.635 27.96L337.835 29L338.395 24.88L345.875 14.56H337.555L338.075 10.72H371.595L371.075 14.56H354.235L347.195 24.44L359.835 23.84L358.515 17.16H365.595ZM370.595 1.28L370.035 5.2H341.835L342.395 1.28H370.595ZM408.552 1.32L408.032 5.12H396.592L395.232 15H408.152L407.632 18.8H394.712L393.232 29.36H385.632L387.112 18.8H374.192L374.712 15H387.632L388.992 5.12H377.632L378.152 1.32H408.552ZM399.472 6.64H406.312L403.832 13.48H396.992L399.472 6.64ZM386.352 13.48H379.512L378.952 6.64H385.792L386.352 13.48ZM443.549 15L441.629 28.56H412.229L414.149 15H443.549ZM441.309 2.12L444.149 13.48H437.669L437.509 12.88H414.349L414.749 10L420.509 1.52L419.549 0.599998H429.429L423.429 9.2H436.589L434.829 2.12H441.309ZM434.629 24.76L435.469 18.76H421.069L420.229 24.76H434.629ZM461.906 19.32H448.266L448.906 15.24H462.586L461.906 19.32ZM493.478 12.36H498.878L498.358 16.16H475.438L471.798 29.36H464.558L469.238 12.36H473.838L473.638 8.16H479.718L479.918 12.36H487.398L488.838 8.16H494.918L493.478 12.36ZM481.198 2.84L481.318 2.08L480.038 0.559999H489.158L488.838 2.84H500.998L500.438 6.64H468.518L469.078 2.84H481.198ZM510.115 2.84L508.795 1.32H534.635L532.915 13.48H508.595L510.115 2.84ZM525.875 9.68L526.515 5.12H517.395L516.755 9.68H525.875ZM536.515 15L534.595 28.68H519.395L521.315 15H536.515ZM526.875 18.8L525.995 24.88H529.035L529.915 18.8H526.875ZM519.795 15L517.875 28.68H502.675L504.595 15H519.795ZM510.155 18.8L509.275 24.88H512.315L513.195 18.8H510.155ZM551.232 26.4L553.032 24.16L553.672 19.56H552.112L550.752 29.36H544.672L546.032 19.56H544.552L543.592 26.4H539.032L540.512 15.76H546.592L546.792 14.24H539.992L540.512 10.44H547.352L547.672 8.16H545.552L545.192 9.68H540.632L542.352 2.84H546.912L546.512 4.36H548.192L548.512 2.08L547.232 0.559999H554.832L554.272 4.36H559.992L559.472 8.16H553.752L553.432 10.44H560.272L559.752 14.24H552.872L552.672 15.76H558.752L557.512 24.76C557.432 25.2133 557.206 25.6 556.832 25.92C556.486 26.24 556.086 26.4 555.632 26.4H551.232ZM560.752 28.68L564.312 24.88L567.472 2.44L566.512 1.32H573.712L570.232 25.96C570.126 26.7333 569.779 27.3867 569.192 27.92C568.606 28.4267 567.926 28.68 567.152 28.68H560.752ZM566.032 4.36L563.152 24.88H558.992L561.872 4.36H566.032ZM589.469 1.56L588.629 0.559999H595.829L594.989 3.6H610.589L610.069 7.4H601.669L601.069 11.6H607.949L607.429 15.36H600.549L599.949 19.56H607.589L607.069 23.36H599.429L598.589 29.36H591.349L594.429 7.4H593.949L592.709 11.96H586.629L589.469 1.56ZM586.469 5.12L583.029 29.36H575.789L579.029 6.6L576.669 7.04L577.309 2.48L587.109 0.559999L586.469 5.12ZM626.026 12.72L626.466 9.68L637.266 5.12H615.706L616.226 1.32H647.386L646.666 6.64L633.706 12.12L633.626 12.72H646.546L646.026 16.52H633.066L631.666 26.72C631.559 27.4933 631.213 28.1333 630.626 28.64C630.039 29.12 629.359 29.36 628.586 29.36H620.666L624.226 25.64L625.506 16.52H612.586L613.106 12.72H626.026ZM683.943 1.32L683.423 5.12H671.983L670.623 15H683.543L683.023 18.8H670.103L668.623 29.36H661.023L662.503 18.8H649.583L650.103 15H663.023L664.383 5.12H653.023L653.543 1.32H683.943ZM674.863 6.64H681.703L679.223 13.48H672.383L674.863 6.64ZM661.743 13.48H654.903L654.343 6.64H661.183L661.743 13.48ZM718.94 15L717.02 28.56H687.62L689.54 15H718.94ZM716.7 2.12L719.54 13.48H713.06L712.9 12.88H689.74L690.14 10L695.9 1.52L694.94 0.599998H704.82L698.82 9.2H711.98L710.22 2.12H716.7ZM710.02 24.76L710.86 18.76H696.46L695.62 24.76H710.02Z" fill="white"/>
</g>
<defs>
<filter id="filter0_d_13513_92838" x="0.783203" y="0.559998" width="722.756" height="36.8" filterUnits="userSpaceOnUse" color-interpolation-filters="sRGB">
<feFlood flood-opacity="0" result="BackgroundImageFix"/>
<feColorMatrix in="SourceAlpha" type="matrix" values="0 0 0 0 0 0 0 0 0 0 0 0 0 0 0 0 0 0 127 0" result="hardAlpha"/>
<feOffset dy="4"/>
<feGaussianBlur stdDeviation="2"/>
<feComposite in2="hardAlpha" operator="out"/>
<feColorMatrix type="matrix" values="0 0 0 0 0 0 0 0 0 0 0 0 0 0 0 0 0 0 0.25 0"/>
<feBlend mode="normal" in2="BackgroundImageFix" result="effect1_dropShadow_13513_92838"/>
<feBlend mode="normal" in="SourceGraphic" in2="effect1_dropShadow_13513_92838" result="shape"/>
</filter>
</defs>
</svg>
